<svg viewBox="0 0 600 400" xmlns="http://www.w3.org/2000/svg">
  <style>
    .bar { transform-origin: bottom; animation: growBar 1.5s cubic-bezier(0.175, 0.885, 0.32, 1.275) forwards; transform: scaleY(0); }
    .b1 { animation-delay: 0.1s; } .b2 { animation-delay: 0.2s; } .b3 { animation-delay: 0.3s; }
    .b4 { animation-delay: 0.4s; } .b5 { animation-delay: 0.5s; } .b6 { animation-delay: 0.6s; }
    
    .line { stroke-dasharray: 1000; stroke-dashoffset: 1000; animation: drawLine 2s ease forwards 1s; fill: none; stroke: var(--color-charcoal-blue-400); stroke-width: 6; stroke-linecap: round; stroke-linejoin: round; filter: drop-shadow(0 8px 8px rgba(139, 92, 246, 0.3)); }
    
    .dot { transform: scale(0); transform-origin: center; animation: popDot 0.5s ease forwards; fill: var(--background); stroke: var(--color-charcoal-blue-400); stroke-width: 4; }
    .d1 { animation-delay: 1.2s; } .d2 { animation-delay: 1.4s; } .d3 { animation-delay: 1.6s; }
    .d4 { animation-delay: 1.8s; } .d5 { animation-delay: 2.0s; } .d6 { animation-delay: 2.2s; }
    
    @keyframes growBar { to { transform: scaleY(1); } }
    @keyframes drawLine { to { stroke-dashoffset: 0; } }
    @keyframes popDot { to { transform: scale(1); } }
  </style>
  
  <!-- Grid Lines -->
  <line x1="50" y1="350" x2="550" y2="350" stroke="var(--secondary-foreground)" stroke-width="4" stroke-linecap="round" />
  <line x1="50" y1="350" x2="50" y2="50" stroke="var(--secondary-foreground)" stroke-width="4" stroke-linecap="round" />
  
  <!-- Animated Bars -->
  <rect class="bar b1" x="90" y="250" width="40" height="100" rx="8" fill="var(--color-charcoal-blue-500)" />
  <rect class="bar b2" x="160" y="200" width="40" height="150" rx="8" fill="var(--color-charcoal-blue-500)" />
  <rect class="bar b3" x="230" y="150" width="40" height="200" rx="8" fill="var(--color-charcoal-blue-500)" />
  <rect class="bar b4" x="300" y="220" width="40" height="130" rx="8" fill="var(--color-charcoal-blue-500)" />
  <rect class="bar b5" x="370" y="100" width="40" height="250" rx="8" fill="var(--color-charcoal-blue-500)" />
  <rect class="bar b6" x="440" y="60" width="40" height="290" rx="8" fill="var(--color-charcoal-blue-500)" />

  <!-- Animated Trend Line -->
  <path class="line" d="M 110 210 L 180 150 L 250 180 L 320 120 L 390 140 L 460 70" />
  
  <!-- Animated Data Points on Trend Line -->
  <circle class="dot d1" cx="110" cy="210" r="8" />
  <circle class="dot d2" cx="180" cy="150" r="8" />
  <circle class="dot d3" cx="250" cy="180" r="8" />
  <circle class="dot d4" cx="320" cy="120" r="8" />
  <circle class="dot d5" cx="390" cy="140" r="8" />
  <circle class="dot d6" cx="460" cy="70" r="8" />
</svg>