<svg viewBox="0 0 600 400" xmlns="http://www.w3.org/2000/svg">
  <style>
    .glass { transform-origin: center; animation: search 6s ease-in-out infinite; filter: drop-shadow(0 15px 15px rgba(0,0,0,0.3)); }
    .page-flip { transform-origin: 300px 300px; animation: flip 6s ease-in-out infinite; }
    @keyframes search { 
      0%, 100% { transform: translate(-50px, -20px) scale(1); } 
      33% { transform: translate(150px, -40px) scale(1.1); } 
      66% { transform: translate(50px, 30px) scale(1.05); } 
    }
    @keyframes flip { 
      0%, 40%, 100% { transform: skewY(0deg) scaleX(1); opacity: 1; } 
      45%, 55% { transform: skewY(-10deg) scaleX(0.5); opacity: 0.8; } 
    }
  </style>
  
  <!-- Book cover bg -->
  <rect x="50" y="50" width="500" height="300" rx="20" fill="#FEF3C7" /> 
  <!-- Left page -->
  <path d="M 100 80 Q 300 120 300 320 Q 100 280 100 80" fill="#FFFFFF" /> 
  <!-- Right page -->
  <path d="M 500 80 Q 300 120 300 320 Q 500 280 500 80" fill="#FFFFFF" /> 
  <!-- Animated Flipping Page -->
  <path class="page-flip" d="M 500 80 Q 300 120 300 320 Q 500 280 500 80" fill="#FDF8F5" />
  
  <!-- Central Binding -->
  <rect x="290" y="60" width="20" height="280" rx="10" fill="#D97706" /> 
  
  <!-- Decorative Text Lines -->
  <line x1="140" y1="130" x2="250" y2="130" stroke="#E5E7EB" stroke-width="8" stroke-linecap="round" />
  <line x1="140" y1="160" x2="220" y2="160" stroke="#E5E7EB" stroke-width="8" stroke-linecap="round" />
  <line x1="140" y1="190" x2="260" y2="190" stroke="#E5E7EB" stroke-width="8" stroke-linecap="round" />
  
  <!-- Magnifying Glass -->
  <g class="glass">
    <circle cx="280" cy="200" r="40" fill="none" stroke="#3B82F6" stroke-width="12" />
    <circle cx="280" cy="200" r="34" fill="rgba(59,130,246,0.1)" />
    <!-- Handle -->
    <line x1="310" y1="230" x2="350" y2="270" stroke="#1E3A8A" stroke-width="16" stroke-linecap="round" />
    <!-- Lens reflection -->
    <path d="M 260 180 Q 280 170 300 190" fill="none" stroke="rgba(255,255,255,0.6)" stroke-width="6" stroke-linecap="round" />
  </g>
</svg>