<svg viewBox="0 0 400 500" xmlns="http://www.w3.org/2000/svg">
  <style>
    .check { stroke-dasharray: 100; stroke-dashoffset: 100; fill: none; stroke: var(--color-verdigris-500); stroke-width: 6; stroke-linecap: round; stroke-linejoin: round; }
    .c1 { animation: draw 0.5s ease forwards 1s; }
    .c2 { animation: draw 0.5s ease forwards 1.8s; }
    .c3 { animation: draw 0.5s ease forwards 2.6s; }
    .l1 { animation: strike 0.5s ease forwards 1s; stroke-dasharray: 200; stroke-dashoffset: 200; stroke: var(--muted-foreground); stroke-width: 4; stroke-linecap: round; }
    .l2 { animation: strike 0.5s ease forwards 1.8s; stroke-dasharray: 200; stroke-dashoffset: 200; stroke: var(--muted-foreground); stroke-width: 4; stroke-linecap: round; }
    .l3 { animation: strike 0.5s ease forwards 2.6s; stroke-dasharray: 200; stroke-dashoffset: 200; stroke: var(--muted-foreground); stroke-width: 4; stroke-linecap: round; }
    @keyframes draw { to { stroke-dashoffset: 0; } }
    @keyframes strike { to { stroke-dashoffset: 0; } }
  </style>
  
  <!-- Clipboard Body -->
  <rect x="80" y="80" width="240" height="360" rx="10" fill="var(--muted)" filter="drop-shadow(0 10px 15px rgba(0,0,0,0.1))" />
  <!-- Clipboard Clip -->
  <rect x="150" y="60" width="100" height="30" rx="15" fill="var(--secondary-foreground)" />
  
  <!-- Item 1 -->
  <rect x="110" y="150" width="20" height="20" rx="4" fill="var(--border)" />
  <rect x="150" y="155" width="140" height="10" rx="5" fill="var(--muted-foreground)" />
  <line class="l1" x1="140" y1="160" x2="300" y2="160" />
  <path class="check c1" d="M 112 160 L 118 165 L 132 145" />

  <!-- Item 2 -->
  <rect x="110" y="210" width="20" height="20" rx="4" fill="var(--border)" />
  <rect x="150" y="215" width="110" height="10" rx="5" fill="var(--muted-foreground)" />
  <line class="l2" x1="140" y1="220" x2="270" y2="220" />
  <path class="check c2" d="M 112 220 L 118 225 L 132 205" />

  <!-- Item 3 -->
  <rect x="110" y="270" width="20" height="20" rx="4" fill="var(--border)" />
  <rect x="150" y="275" width="160" height="10" rx="5" fill="var(--muted-foreground)" />
  <line class="l3" x1="140" y1="280" x2="320" y2="280" />
  <path class="check c3" d="M 112 280 L 118 285 L 132 265" />
  
  <!-- Item 4 (Not Checked yet) -->
  <rect x="110" y="330" width="20" height="20" rx="4" fill="var(--border)" />
  <rect x="150" y="335" width="130" height="10" rx="5" fill="var(--muted-foreground)" />
</svg>